<mxfile host="65bd71144e">
    <diagram name="Architecture" id="ViDdVU3fCNW2upOSIPjm">
        <mxGraphModel dx="446" dy="534" grid="1" gridSize="10" guides="1" tooltips="1" connect="1" arrows="1" fold="1" page="1" pageScale="1" pageWidth="827" pageHeight="1169" math="0" shadow="0">
            <root>
                <mxCell id="0"/>
                <mxCell id="1" parent="0"/>
                <mxCell id="VNNkjWeVyXdIB6SSBeoQ-76" value="AWS Cloud" style="sketch=0;outlineConnect=0;gradientColor=none;html=1;whiteSpace=wrap;fontSize=8;fontStyle=0;shape=mxgraph.aws4.group;grIcon=mxgraph.aws4.group_aws_cloud;strokeColor=#AAB7B8;fillColor=none;verticalAlign=top;align=left;spacingLeft=30;fontColor=#AAB7B8;dashed=0;fontFamily=Helvetica;" parent="1" vertex="1">
                    <mxGeometry x="340" y="230" width="490" height="420" as="geometry"/>
                </mxCell>
                <mxCell id="VNNkjWeVyXdIB6SSBeoQ-75" value="CI/CD Pipeline" style="fillColor=none;strokeColor=#5A6C86;dashed=1;verticalAlign=top;fontStyle=0;fontColor=#5A6C86;fontFamily=Helvetica;fontSize=8;" parent="1" vertex="1">
                    <mxGeometry x="720" y="270" width="100" height="370" as="geometry"/>
                </mxCell>
                <mxCell id="VNNkjWeVyXdIB6SSBeoQ-59" value="IaC (CloudFormation)" style="fillColor=none;strokeColor=#5A6C86;dashed=1;verticalAlign=top;fontStyle=0;fontColor=#5A6C86;fontFamily=Helvetica;fontSize=8;" parent="1" vertex="1">
                    <mxGeometry x="350" y="270" width="360" height="370" as="geometry"/>
                </mxCell>
                <mxCell id="VNNkjWeVyXdIB6SSBeoQ-67" value="CodeDeploy (deployment)" style="fillColor=none;strokeColor=#5A6C86;dashed=1;verticalAlign=top;fontStyle=0;fontColor=#5A6C86;fontFamily=Helvetica;fontSize=8;" parent="1" vertex="1">
                    <mxGeometry x="360" y="320" width="270" height="310" as="geometry"/>
                </mxCell>
                <mxCell id="VNNkjWeVyXdIB6SSBeoQ-16" style="edgeStyle=orthogonalEdgeStyle;shape=connector;orthogonalLoop=1;jettySize=auto;html=1;exitX=0.5;exitY=1;exitDx=0;exitDy=0;exitPerimeter=0;labelBackgroundColor=default;strokeColor=default;fontFamily=Helvetica;fontSize=8;fontColor=default;endArrow=blockThin;entryX=0;entryY=0.5;entryDx=0;entryDy=0;entryPerimeter=0;rounded=1;startArrow=oval;startFill=1;arcSize=10;endFill=1;" parent="1" source="VNNkjWeVyXdIB6SSBeoQ-1" target="VNNkjWeVyXdIB6SSBeoQ-6" edge="1">
                    <mxGeometry relative="1" as="geometry"/>
                </mxCell>
                <mxCell id="VNNkjWeVyXdIB6SSBeoQ-44" value="http" style="edgeLabel;html=1;align=center;verticalAlign=middle;resizable=0;points=[];fontSize=8;fontFamily=Helvetica;fontColor=default;" parent="VNNkjWeVyXdIB6SSBeoQ-16" vertex="1" connectable="0">
                    <mxGeometry x="0.3307" y="-1" relative="1" as="geometry">
                        <mxPoint as="offset"/>
                    </mxGeometry>
                </mxCell>
                <mxCell id="VNNkjWeVyXdIB6SSBeoQ-17" style="edgeStyle=orthogonalEdgeStyle;shape=connector;rounded=1;orthogonalLoop=1;jettySize=auto;html=1;labelBackgroundColor=default;strokeColor=default;fontFamily=Helvetica;fontSize=8;fontColor=default;startArrow=oval;startFill=1;endArrow=blockThin;endFill=1;" parent="1" source="VNNkjWeVyXdIB6SSBeoQ-1" target="VNNkjWeVyXdIB6SSBeoQ-4" edge="1">
                    <mxGeometry relative="1" as="geometry"/>
                </mxCell>
                <mxCell id="VNNkjWeVyXdIB6SSBeoQ-43" value="http" style="edgeLabel;html=1;align=center;verticalAlign=middle;resizable=0;points=[];fontSize=8;fontFamily=Helvetica;fontColor=default;" parent="VNNkjWeVyXdIB6SSBeoQ-17" vertex="1" connectable="0">
                    <mxGeometry x="-0.0018" y="-1" relative="1" as="geometry">
                        <mxPoint as="offset"/>
                    </mxGeometry>
                </mxCell>
                <mxCell id="VNNkjWeVyXdIB6SSBeoQ-1" value="End User" style="sketch=0;points=[[0,0,0],[0.25,0,0],[0.5,0,0],[0.75,0,0],[1,0,0],[0,1,0],[0.25,1,0],[0.5,1,0],[0.75,1,0],[1,1,0],[0,0.25,0],[0,0.5,0],[0,0.75,0],[1,0.25,0],[1,0.5,0],[1,0.75,0]];outlineConnect=0;fontColor=#232F3E;gradientColor=#4AB29A;gradientDirection=north;fillColor=#116D5B;strokeColor=#ffffff;dashed=0;verticalLabelPosition=bottom;verticalAlign=top;align=center;html=1;fontSize=8;fontStyle=0;aspect=fixed;shape=mxgraph.aws4.resourceIcon;resIcon=mxgraph.aws4.desktop_and_app_streaming;snapToPoint=1;" parent="1" vertex="1">
                    <mxGeometry x="280" y="386.5" width="38.5" height="38.5" as="geometry"/>
                </mxCell>
                <mxCell id="VNNkjWeVyXdIB6SSBeoQ-54" style="edgeStyle=orthogonalEdgeStyle;shape=connector;rounded=1;orthogonalLoop=1;jettySize=auto;html=1;labelBackgroundColor=default;strokeColor=default;fontFamily=Helvetica;fontSize=8;fontColor=default;startArrow=oval;startFill=1;endArrow=blockThin;endFill=1;entryX=0.5;entryY=0;entryDx=0;entryDy=0;entryPerimeter=0;" parent="1" source="VNNkjWeVyXdIB6SSBeoQ-4" target="VNNkjWeVyXdIB6SSBeoQ-6" edge="1">
                    <mxGeometry relative="1" as="geometry">
                        <Array as="points">
                            <mxPoint x="404" y="410"/>
                        </Array>
                    </mxGeometry>
                </mxCell>
                <mxCell id="VNNkjWeVyXdIB6SSBeoQ-55" value="http" style="edgeLabel;html=1;align=center;verticalAlign=middle;resizable=0;points=[];fontSize=8;fontFamily=Helvetica;fontColor=default;" parent="VNNkjWeVyXdIB6SSBeoQ-54" vertex="1" connectable="0">
                    <mxGeometry x="0.5542" y="1" relative="1" as="geometry">
                        <mxPoint x="-7" y="-3" as="offset"/>
                    </mxGeometry>
                </mxCell>
                <mxCell id="VNNkjWeVyXdIB6SSBeoQ-4" value="frontend-service" style="sketch=0;outlineConnect=0;fontColor=#232F3E;gradientColor=none;fillColor=#D45B07;strokeColor=none;dashed=0;verticalLabelPosition=bottom;verticalAlign=top;align=center;html=1;fontSize=8;fontStyle=0;aspect=fixed;pointerEvents=1;shape=mxgraph.aws4.container_3;snapToPoint=1;" parent="1" vertex="1">
                    <mxGeometry x="380" y="390" width="46.45" height="30" as="geometry"/>
                </mxCell>
                <mxCell id="VNNkjWeVyXdIB6SSBeoQ-18" style="edgeStyle=orthogonalEdgeStyle;shape=connector;rounded=1;orthogonalLoop=1;jettySize=auto;html=1;labelBackgroundColor=default;strokeColor=default;fontFamily=Helvetica;fontSize=8;fontColor=default;startArrow=oval;startFill=1;endArrow=blockThin;endFill=1;arcSize=10;exitX=1;exitY=0.2;exitDx=0;exitDy=0;exitPerimeter=0;entryX=0;entryY=0.5;entryDx=0;entryDy=0;entryPerimeter=0;" parent="1" source="VNNkjWeVyXdIB6SSBeoQ-6" target="VNNkjWeVyXdIB6SSBeoQ-11" edge="1">
                    <mxGeometry relative="1" as="geometry">
                        <Array as="points">
                            <mxPoint x="460" y="463"/>
                            <mxPoint x="460" y="360"/>
                        </Array>
                    </mxGeometry>
                </mxCell>
                <mxCell id="VNNkjWeVyXdIB6SSBeoQ-49" value="http" style="edgeLabel;html=1;align=center;verticalAlign=middle;resizable=0;points=[];fontSize=8;fontFamily=Helvetica;fontColor=default;" parent="VNNkjWeVyXdIB6SSBeoQ-18" vertex="1" connectable="0">
                    <mxGeometry x="0.6301" y="-1" relative="1" as="geometry">
                        <mxPoint x="9" y="-1" as="offset"/>
                    </mxGeometry>
                </mxCell>
                <mxCell id="VNNkjWeVyXdIB6SSBeoQ-23" style="edgeStyle=orthogonalEdgeStyle;shape=connector;rounded=1;orthogonalLoop=1;jettySize=auto;html=1;labelBackgroundColor=default;strokeColor=default;fontFamily=Helvetica;fontSize=8;fontColor=default;startArrow=oval;startFill=1;endArrow=blockThin;endFill=1;exitX=1;exitY=0.4;exitDx=0;exitDy=0;exitPerimeter=0;arcSize=10;entryX=0;entryY=0.67;entryDx=0;entryDy=0;entryPerimeter=0;" parent="1" source="VNNkjWeVyXdIB6SSBeoQ-6" target="VNNkjWeVyXdIB6SSBeoQ-19" edge="1">
                    <mxGeometry relative="1" as="geometry">
                        <Array as="points">
                            <mxPoint x="470" y="469"/>
                            <mxPoint x="470" y="420"/>
                        </Array>
                    </mxGeometry>
                </mxCell>
                <mxCell id="VNNkjWeVyXdIB6SSBeoQ-48" value="http" style="edgeLabel;html=1;align=center;verticalAlign=middle;resizable=0;points=[];fontSize=8;fontFamily=Helvetica;fontColor=default;" parent="VNNkjWeVyXdIB6SSBeoQ-23" vertex="1" connectable="0">
                    <mxGeometry x="0.5903" relative="1" as="geometry">
                        <mxPoint x="1" as="offset"/>
                    </mxGeometry>
                </mxCell>
                <mxCell id="VNNkjWeVyXdIB6SSBeoQ-24" style="edgeStyle=orthogonalEdgeStyle;shape=connector;rounded=1;orthogonalLoop=1;jettySize=auto;html=1;labelBackgroundColor=default;strokeColor=default;fontFamily=Helvetica;fontSize=8;fontColor=default;startArrow=oval;startFill=1;endArrow=blockThin;endFill=1;arcSize=10;exitX=1;exitY=0.6;exitDx=0;exitDy=0;exitPerimeter=0;" parent="1" source="VNNkjWeVyXdIB6SSBeoQ-6" target="VNNkjWeVyXdIB6SSBeoQ-20" edge="1">
                    <mxGeometry relative="1" as="geometry">
                        <Array as="points">
                            <mxPoint x="470" y="476"/>
                            <mxPoint x="470" y="476"/>
                        </Array>
                    </mxGeometry>
                </mxCell>
                <mxCell id="VNNkjWeVyXdIB6SSBeoQ-47" value="http" style="edgeLabel;html=1;align=center;verticalAlign=middle;resizable=0;points=[];fontSize=8;fontFamily=Helvetica;fontColor=default;" parent="VNNkjWeVyXdIB6SSBeoQ-24" vertex="1" connectable="0">
                    <mxGeometry x="0.4592" y="-1" relative="1" as="geometry">
                        <mxPoint x="-3" y="-2" as="offset"/>
                    </mxGeometry>
                </mxCell>
                <mxCell id="VNNkjWeVyXdIB6SSBeoQ-27" style="edgeStyle=orthogonalEdgeStyle;shape=connector;rounded=1;orthogonalLoop=1;jettySize=auto;html=1;exitX=1;exitY=0.8;exitDx=0;exitDy=0;exitPerimeter=0;labelBackgroundColor=default;strokeColor=default;fontFamily=Helvetica;fontSize=8;fontColor=default;startArrow=oval;startFill=1;endArrow=blockThin;endFill=1;arcSize=10;" parent="1" source="VNNkjWeVyXdIB6SSBeoQ-6" target="VNNkjWeVyXdIB6SSBeoQ-22" edge="1">
                    <mxGeometry relative="1" as="geometry">
                        <Array as="points">
                            <mxPoint x="460" y="482"/>
                            <mxPoint x="460" y="535"/>
                        </Array>
                    </mxGeometry>
                </mxCell>
                <mxCell id="VNNkjWeVyXdIB6SSBeoQ-46" value="http" style="edgeLabel;html=1;align=center;verticalAlign=middle;resizable=0;points=[];fontSize=8;fontFamily=Helvetica;fontColor=default;" parent="VNNkjWeVyXdIB6SSBeoQ-27" vertex="1" connectable="0">
                    <mxGeometry x="0.6802" y="-1" relative="1" as="geometry">
                        <mxPoint x="-4" y="-1" as="offset"/>
                    </mxGeometry>
                </mxCell>
                <mxCell id="VNNkjWeVyXdIB6SSBeoQ-6" value="bff-service" style="sketch=0;outlineConnect=0;fontColor=#232F3E;gradientColor=none;fillColor=#D45B07;strokeColor=none;dashed=0;verticalLabelPosition=bottom;verticalAlign=top;align=center;html=1;fontSize=8;fontStyle=0;aspect=fixed;pointerEvents=1;shape=mxgraph.aws4.container_2;snapToPoint=1;points=[[0,0.16,0,0,0],[0,0.32,0,0,0],[0,0.52,0,0,0],[0,0.68,0,0,0],[0,0.84,0,0,0],[0.17,0,0,0,0],[0.33,0,0,0,0],[0.5,0,0,0,0],[0.67,0,0,0,0],[0.83,0,0,0,0],[1,0.2,0,0,0],[1,0.4,0,0,0],[1,0.6,0,0,0],[1,0.8,0,0,0]];" parent="1" vertex="1">
                    <mxGeometry x="380" y="457" width="48" height="31" as="geometry"/>
                </mxCell>
                <mxCell id="VNNkjWeVyXdIB6SSBeoQ-32" style="edgeStyle=orthogonalEdgeStyle;shape=connector;rounded=1;orthogonalLoop=1;jettySize=auto;html=1;labelBackgroundColor=default;strokeColor=default;fontFamily=Helvetica;fontSize=8;fontColor=default;startArrow=oval;startFill=1;endArrow=blockThin;endFill=1;arcSize=10;exitX=1;exitY=0.33;exitDx=0;exitDy=0;exitPerimeter=0;entryX=0;entryY=0.5;entryDx=0;entryDy=0;entryPerimeter=0;" parent="1" source="VNNkjWeVyXdIB6SSBeoQ-11" target="VNNkjWeVyXdIB6SSBeoQ-14" edge="1">
                    <mxGeometry relative="1" as="geometry">
                        <Array as="points">
                            <mxPoint x="650" y="355"/>
                        </Array>
                    </mxGeometry>
                </mxCell>
                <mxCell id="VNNkjWeVyXdIB6SSBeoQ-33" value="https" style="edgeLabel;html=1;align=center;verticalAlign=middle;resizable=0;points=[];fontSize=8;fontFamily=Helvetica;fontColor=default;" parent="VNNkjWeVyXdIB6SSBeoQ-32" vertex="1" connectable="0">
                    <mxGeometry x="0.028" y="-2" relative="1" as="geometry">
                        <mxPoint as="offset"/>
                    </mxGeometry>
                </mxCell>
                <mxCell id="VNNkjWeVyXdIB6SSBeoQ-36" style="edgeStyle=orthogonalEdgeStyle;shape=connector;rounded=1;orthogonalLoop=1;jettySize=auto;html=1;entryX=1;entryY=0.2;entryDx=0;entryDy=0;entryPerimeter=0;labelBackgroundColor=default;strokeColor=default;fontFamily=Helvetica;fontSize=8;fontColor=default;startArrow=oval;startFill=1;endArrow=blockThin;endFill=1;arcSize=10;exitX=1;exitY=0.67;exitDx=0;exitDy=0;exitPerimeter=0;" parent="1" source="VNNkjWeVyXdIB6SSBeoQ-11" target="VNNkjWeVyXdIB6SSBeoQ-19" edge="1">
                    <mxGeometry relative="1" as="geometry">
                        <Array as="points">
                            <mxPoint x="590" y="365"/>
                            <mxPoint x="590" y="406"/>
                        </Array>
                    </mxGeometry>
                </mxCell>
                <mxCell id="VNNkjWeVyXdIB6SSBeoQ-50" value="http" style="edgeLabel;html=1;align=center;verticalAlign=middle;resizable=0;points=[];fontSize=8;fontFamily=Helvetica;fontColor=default;" parent="VNNkjWeVyXdIB6SSBeoQ-36" vertex="1" connectable="0">
                    <mxGeometry x="-0.0499" y="1" relative="1" as="geometry">
                        <mxPoint as="offset"/>
                    </mxGeometry>
                </mxCell>
                <mxCell id="VNNkjWeVyXdIB6SSBeoQ-11" value="auth-service" style="sketch=0;outlineConnect=0;fontColor=#232F3E;gradientColor=none;fillColor=#D45B07;strokeColor=none;dashed=0;verticalLabelPosition=bottom;verticalAlign=top;align=center;html=1;fontSize=8;fontStyle=0;aspect=fixed;pointerEvents=1;shape=mxgraph.aws4.container_1;points=[[0,0.17,0,0,0],[0,0.33,0,0,0],[0,0.5,0,0,0],[0,0.67,0,0,0],[0,0.83,0,0,0],[1,0.33,0,0,0],[1,0.67,0,0,0]];" parent="1" vertex="1">
                    <mxGeometry x="516.79" y="345" width="46.44" height="30" as="geometry"/>
                </mxCell>
                <mxCell id="VNNkjWeVyXdIB6SSBeoQ-14" value="cognito" style="sketch=0;points=[[0,0,0],[0.25,0,0],[0.5,0,0],[0.75,0,0],[1,0,0],[0,1,0],[0.25,1,0],[0.5,1,0],[0.75,1,0],[1,1,0],[0,0.25,0],[0,0.5,0],[0,0.75,0],[1,0.25,0],[1,0.5,0],[1,0.75,0]];outlineConnect=0;fontColor=#232F3E;gradientColor=#F54749;gradientDirection=north;fillColor=#C7131F;strokeColor=#ffffff;dashed=0;verticalLabelPosition=bottom;verticalAlign=top;align=center;html=1;fontSize=8;fontStyle=0;aspect=fixed;shape=mxgraph.aws4.resourceIcon;resIcon=mxgraph.aws4.cognito;fontFamily=Helvetica;" parent="1" vertex="1">
                    <mxGeometry x="650" y="335" width="40" height="40" as="geometry"/>
                </mxCell>
                <mxCell id="VNNkjWeVyXdIB6SSBeoQ-40" style="edgeStyle=orthogonalEdgeStyle;shape=connector;rounded=1;orthogonalLoop=1;jettySize=auto;html=1;labelBackgroundColor=default;strokeColor=default;fontFamily=Helvetica;fontSize=8;fontColor=default;startArrow=oval;startFill=1;endArrow=blockThin;endFill=1;exitX=1;exitY=0.4;exitDx=0;exitDy=0;exitPerimeter=0;arcSize=10;" parent="1" source="VNNkjWeVyXdIB6SSBeoQ-19" target="VNNkjWeVyXdIB6SSBeoQ-39" edge="1">
                    <mxGeometry relative="1" as="geometry">
                        <Array as="points">
                            <mxPoint x="670" y="412"/>
                            <mxPoint x="670" y="412"/>
                        </Array>
                    </mxGeometry>
                </mxCell>
                <mxCell id="XZUPAo8GXQ_Ro02G_9b--6" value="http" style="edgeLabel;html=1;align=center;verticalAlign=middle;resizable=0;points=[];fontSize=8;" parent="VNNkjWeVyXdIB6SSBeoQ-40" vertex="1" connectable="0">
                    <mxGeometry x="0.3051" relative="1" as="geometry">
                        <mxPoint as="offset"/>
                    </mxGeometry>
                </mxCell>
                <mxCell id="VNNkjWeVyXdIB6SSBeoQ-19" value="logs-service" style="sketch=0;outlineConnect=0;fontColor=#232F3E;gradientColor=none;fillColor=#D45B07;strokeColor=none;dashed=0;verticalLabelPosition=bottom;verticalAlign=top;align=center;html=1;fontSize=8;fontStyle=0;aspect=fixed;pointerEvents=1;shape=mxgraph.aws4.container_1;fontFamily=Helvetica;points=[[0,0.33,0,0,0],[0,0.67,0,0,0],[0.99,0.2,0,0,0],[0.99,0.4,0,0,0],[0.99,0.6,0,0,0],[0.99,0.8,0,0,0]];" parent="1" vertex="1">
                    <mxGeometry x="516.77" y="400" width="46.45" height="30" as="geometry"/>
                </mxCell>
                <mxCell id="VNNkjWeVyXdIB6SSBeoQ-37" style="edgeStyle=orthogonalEdgeStyle;shape=connector;rounded=1;orthogonalLoop=1;jettySize=auto;html=1;entryX=1;entryY=0.8;entryDx=0;entryDy=0;entryPerimeter=0;labelBackgroundColor=default;strokeColor=default;fontFamily=Helvetica;fontSize=8;fontColor=default;startArrow=oval;startFill=1;endArrow=blockThin;endFill=1;exitX=1;exitY=0.33;exitDx=0;exitDy=0;exitPerimeter=0;arcSize=10;" parent="1" source="VNNkjWeVyXdIB6SSBeoQ-20" target="VNNkjWeVyXdIB6SSBeoQ-19" edge="1">
                    <mxGeometry relative="1" as="geometry">
                        <Array as="points">
                            <mxPoint x="590" y="470"/>
                            <mxPoint x="590" y="424"/>
                        </Array>
                    </mxGeometry>
                </mxCell>
                <mxCell id="VNNkjWeVyXdIB6SSBeoQ-53" value="http" style="edgeLabel;html=1;align=center;verticalAlign=middle;resizable=0;points=[];fontSize=8;fontFamily=Helvetica;fontColor=default;" parent="VNNkjWeVyXdIB6SSBeoQ-37" vertex="1" connectable="0">
                    <mxGeometry x="0.0008" y="2" relative="1" as="geometry">
                        <mxPoint as="offset"/>
                    </mxGeometry>
                </mxCell>
                <mxCell id="VNNkjWeVyXdIB6SSBeoQ-56" style="edgeStyle=orthogonalEdgeStyle;shape=connector;rounded=1;orthogonalLoop=1;jettySize=auto;html=1;exitX=1;exitY=0.67;exitDx=0;exitDy=0;exitPerimeter=0;entryX=0;entryY=0.5;entryDx=0;entryDy=0;entryPerimeter=0;labelBackgroundColor=default;strokeColor=default;fontFamily=Helvetica;fontSize=8;fontColor=default;startArrow=oval;startFill=1;endArrow=blockThin;endFill=1;arcSize=10;" parent="1" source="VNNkjWeVyXdIB6SSBeoQ-20" target="VNNkjWeVyXdIB6SSBeoQ-45" edge="1">
                    <mxGeometry relative="1" as="geometry">
                        <Array as="points">
                            <mxPoint x="650" y="480"/>
                        </Array>
                    </mxGeometry>
                </mxCell>
                <mxCell id="VNNkjWeVyXdIB6SSBeoQ-57" value="http" style="edgeLabel;html=1;align=center;verticalAlign=middle;resizable=0;points=[];fontSize=8;fontFamily=Helvetica;fontColor=default;" parent="VNNkjWeVyXdIB6SSBeoQ-56" vertex="1" connectable="0">
                    <mxGeometry x="0.4118" relative="1" as="geometry">
                        <mxPoint x="-35" as="offset"/>
                    </mxGeometry>
                </mxCell>
                <mxCell id="VNNkjWeVyXdIB6SSBeoQ-20" value="notes-service" style="sketch=0;outlineConnect=0;fontColor=#232F3E;gradientColor=none;fillColor=#D45B07;strokeColor=none;dashed=0;verticalLabelPosition=bottom;verticalAlign=top;align=center;html=1;fontSize=8;fontStyle=0;aspect=fixed;pointerEvents=1;shape=mxgraph.aws4.container_1;fontFamily=Helvetica;points=[[1,0.33,0,0,0],[1,0.67,0,0,0]];" parent="1" vertex="1">
                    <mxGeometry x="516.77" y="460" width="46.45" height="30" as="geometry"/>
                </mxCell>
                <mxCell id="VNNkjWeVyXdIB6SSBeoQ-38" style="edgeStyle=orthogonalEdgeStyle;shape=connector;rounded=1;orthogonalLoop=1;jettySize=auto;html=1;entryX=1;entryY=0.6;entryDx=0;entryDy=0;entryPerimeter=0;labelBackgroundColor=default;strokeColor=default;fontFamily=Helvetica;fontSize=8;fontColor=default;startArrow=oval;startFill=1;endArrow=blockThin;endFill=1;arcSize=10;exitX=1;exitY=0.25;exitDx=0;exitDy=0;exitPerimeter=0;" parent="1" source="VNNkjWeVyXdIB6SSBeoQ-22" target="VNNkjWeVyXdIB6SSBeoQ-19" edge="1">
                    <mxGeometry relative="1" as="geometry">
                        <Array as="points">
                            <mxPoint x="620" y="528"/>
                            <mxPoint x="620" y="418"/>
                        </Array>
                    </mxGeometry>
                </mxCell>
                <mxCell id="VNNkjWeVyXdIB6SSBeoQ-52" value="http" style="edgeLabel;html=1;align=center;verticalAlign=middle;resizable=0;points=[];fontSize=8;fontFamily=Helvetica;fontColor=default;" parent="VNNkjWeVyXdIB6SSBeoQ-38" vertex="1" connectable="0">
                    <mxGeometry x="-0.0078" relative="1" as="geometry">
                        <mxPoint y="-7" as="offset"/>
                    </mxGeometry>
                </mxCell>
                <mxCell id="XZUPAo8GXQ_Ro02G_9b--4" style="edgeStyle=orthogonalEdgeStyle;rounded=1;orthogonalLoop=1;jettySize=auto;html=1;exitX=1;exitY=0.75;exitDx=0;exitDy=0;exitPerimeter=0;fontSize=8;arcSize=10;" parent="1" source="VNNkjWeVyXdIB6SSBeoQ-22" target="XZUPAo8GXQ_Ro02G_9b--3" edge="1">
                    <mxGeometry relative="1" as="geometry">
                        <Array as="points">
                            <mxPoint x="590" y="543"/>
                            <mxPoint x="590" y="600"/>
                        </Array>
                    </mxGeometry>
                </mxCell>
                <mxCell id="XZUPAo8GXQ_Ro02G_9b--5" value="https" style="edgeLabel;html=1;align=center;verticalAlign=middle;resizable=0;points=[];fontSize=8;" parent="XZUPAo8GXQ_Ro02G_9b--4" vertex="1" connectable="0">
                    <mxGeometry x="0.0367" y="-1" relative="1" as="geometry">
                        <mxPoint as="offset"/>
                    </mxGeometry>
                </mxCell>
                <mxCell id="VNNkjWeVyXdIB6SSBeoQ-22" value="search-service" style="sketch=0;outlineConnect=0;fontColor=#232F3E;gradientColor=none;fillColor=#D45B07;strokeColor=none;dashed=0;verticalLabelPosition=bottom;verticalAlign=top;align=center;html=1;fontSize=8;fontStyle=0;aspect=fixed;pointerEvents=1;shape=mxgraph.aws4.container_1;fontFamily=Helvetica;points=[[1,0.25,0,0,0],[1,0.5,0,0,0],[1,0.75,0,0,0]];" parent="1" vertex="1">
                    <mxGeometry x="516.79" y="520" width="46.45" height="30" as="geometry"/>
                </mxCell>
                <mxCell id="VNNkjWeVyXdIB6SSBeoQ-39" value="cloudwatch" style="sketch=0;outlineConnect=0;fontColor=#232F3E;gradientColor=none;fillColor=#B0084D;strokeColor=none;dashed=0;verticalLabelPosition=bottom;verticalAlign=top;align=center;html=1;fontSize=8;fontStyle=0;aspect=fixed;pointerEvents=1;shape=mxgraph.aws4.logs;fontFamily=Helvetica;" parent="1" vertex="1">
                    <mxGeometry x="650.34" y="401" width="40.34" height="30" as="geometry"/>
                </mxCell>
                <mxCell id="VNNkjWeVyXdIB6SSBeoQ-45" value="dynamodb" style="sketch=0;points=[[0,0,0],[0.25,0,0],[0.5,0,0],[0.75,0,0],[1,0,0],[0,1,0],[0.25,1,0],[0.5,1,0],[0.75,1,0],[1,1,0],[0,0.25,0],[0,0.5,0],[0,0.75,0],[1,0.25,0],[1,0.5,0],[1,0.75,0]];outlineConnect=0;fontColor=#232F3E;gradientColor=#4D72F3;gradientDirection=north;fillColor=#3334B9;strokeColor=#ffffff;dashed=0;verticalLabelPosition=bottom;verticalAlign=top;align=center;html=1;fontSize=8;fontStyle=0;aspect=fixed;shape=mxgraph.aws4.resourceIcon;resIcon=mxgraph.aws4.dynamodb;fontFamily=Helvetica;" parent="1" vertex="1">
                    <mxGeometry x="650" y="460" width="40" height="40" as="geometry"/>
                </mxCell>
                <mxCell id="VNNkjWeVyXdIB6SSBeoQ-58" value="" style="sketch=0;points=[[0,0,0],[0.25,0,0],[0.5,0,0],[0.75,0,0],[1,0,0],[0,1,0],[0.25,1,0],[0.5,1,0],[0.75,1,0],[1,1,0],[0,0.25,0],[0,0.5,0],[0,0.75,0],[1,0.25,0],[1,0.5,0],[1,0.75,0]];points=[[0,0,0],[0.25,0,0],[0.5,0,0],[0.75,0,0],[1,0,0],[0,1,0],[0.25,1,0],[0.5,1,0],[0.75,1,0],[1,1,0],[0,0.25,0],[0,0.5,0],[0,0.75,0],[1,0.25,0],[1,0.5,0],[1,0.75,0]];outlineConnect=0;fontColor=#232F3E;gradientColor=#F34482;gradientDirection=north;fillColor=#BC1356;strokeColor=#ffffff;dashed=0;verticalLabelPosition=bottom;verticalAlign=top;align=center;html=1;fontSize=8;fontStyle=0;aspect=fixed;shape=mxgraph.aws4.resourceIcon;resIcon=mxgraph.aws4.cloudformation;fontFamily=Helvetica;" parent="1" vertex="1">
                    <mxGeometry x="350" y="270" width="40" height="40" as="geometry"/>
                </mxCell>
                <mxCell id="VNNkjWeVyXdIB6SSBeoQ-70" style="edgeStyle=orthogonalEdgeStyle;shape=connector;rounded=1;orthogonalLoop=1;jettySize=auto;html=1;labelBackgroundColor=default;strokeColor=default;fontFamily=Helvetica;fontSize=8;fontColor=default;startArrow=oval;startFill=1;endArrow=blockThin;endFill=1;arcSize=10;" parent="1" source="VNNkjWeVyXdIB6SSBeoQ-60" target="VNNkjWeVyXdIB6SSBeoQ-66" edge="1">
                    <mxGeometry relative="1" as="geometry"/>
                </mxCell>
                <mxCell id="VNNkjWeVyXdIB6SSBeoQ-72" style="edgeStyle=orthogonalEdgeStyle;shape=connector;rounded=1;orthogonalLoop=1;jettySize=auto;html=1;labelBackgroundColor=default;strokeColor=default;fontFamily=Helvetica;fontSize=8;fontColor=default;startArrow=oval;startFill=1;endArrow=blockThin;endFill=1;arcSize=10;exitX=0;exitY=0.5;exitDx=0;exitDy=0;exitPerimeter=0;entryX=1;entryY=0.871;entryDx=0;entryDy=0;entryPerimeter=0;" parent="1" source="VNNkjWeVyXdIB6SSBeoQ-60" target="VNNkjWeVyXdIB6SSBeoQ-67" edge="1">
                    <mxGeometry relative="1" as="geometry">
                        <mxPoint x="640" y="590" as="targetPoint"/>
                        <Array as="points">
                            <mxPoint x="700" y="590"/>
                            <mxPoint x="700" y="590"/>
                        </Array>
                    </mxGeometry>
                </mxCell>
                <mxCell id="VNNkjWeVyXdIB6SSBeoQ-60" value="CodeDeploy&lt;br style=&quot;font-size: 8px;&quot;&gt;" style="sketch=0;points=[[0,0,0],[0.25,0,0],[0.5,0,0],[0.75,0,0],[1,0,0],[0,1,0],[0.25,1,0],[0.5,1,0],[0.75,1,0],[1,1,0],[0,0.25,0],[0,0.5,0],[0,0.75,0],[1,0.25,0],[1,0.5,0],[1,0.75,0]];outlineConnect=0;fontColor=#232F3E;gradientColor=#4D72F3;gradientDirection=north;fillColor=#3334B9;strokeColor=#ffffff;dashed=0;verticalLabelPosition=bottom;verticalAlign=top;align=center;html=1;fontSize=8;fontStyle=0;aspect=fixed;shape=mxgraph.aws4.resourceIcon;resIcon=mxgraph.aws4.codedeploy;fontFamily=Helvetica;" parent="1" vertex="1">
                    <mxGeometry x="734.5" y="570" width="40" height="40" as="geometry"/>
                </mxCell>
                <mxCell id="VNNkjWeVyXdIB6SSBeoQ-62" value="Github" style="dashed=0;outlineConnect=0;html=1;align=center;labelPosition=center;verticalLabelPosition=bottom;verticalAlign=top;shape=mxgraph.weblogos.github;fontFamily=Helvetica;fontSize=8;fontColor=default;" parent="1" vertex="1">
                    <mxGeometry x="860" y="380" width="40" height="40" as="geometry"/>
                </mxCell>
                <mxCell id="VNNkjWeVyXdIB6SSBeoQ-64" style="edgeStyle=orthogonalEdgeStyle;shape=connector;rounded=1;orthogonalLoop=1;jettySize=auto;html=1;labelBackgroundColor=default;strokeColor=default;fontFamily=Helvetica;fontSize=8;fontColor=default;startArrow=oval;startFill=1;endArrow=blockThin;endFill=1;arcSize=10;" parent="1" source="VNNkjWeVyXdIB6SSBeoQ-63" target="VNNkjWeVyXdIB6SSBeoQ-65" edge="1">
                    <mxGeometry relative="1" as="geometry"/>
                </mxCell>
                <mxCell id="VNNkjWeVyXdIB6SSBeoQ-68" style="edgeStyle=orthogonalEdgeStyle;shape=connector;rounded=1;orthogonalLoop=1;jettySize=auto;html=1;labelBackgroundColor=default;strokeColor=default;fontFamily=Helvetica;fontSize=8;fontColor=default;startArrow=oval;startFill=1;endArrow=blockThin;endFill=1;arcSize=10;exitX=0.5;exitY=1;exitDx=0;exitDy=0;exitPerimeter=0;" parent="1" source="VNNkjWeVyXdIB6SSBeoQ-63" target="VNNkjWeVyXdIB6SSBeoQ-60" edge="1">
                    <mxGeometry relative="1" as="geometry">
                        <Array as="points">
                            <mxPoint x="755" y="320"/>
                            <mxPoint x="800" y="320"/>
                            <mxPoint x="800" y="590"/>
                        </Array>
                    </mxGeometry>
                </mxCell>
                <mxCell id="VNNkjWeVyXdIB6SSBeoQ-63" value="CodePipeline" style="sketch=0;points=[[0,0,0],[0.25,0,0],[0.5,0,0],[0.75,0,0],[1,0,0],[0,1,0],[0.25,1,0],[0.5,1,0],[0.75,1,0],[1,1,0],[0,0.25,0],[0,0.5,0],[0,0.75,0],[1,0.25,0],[1,0.5,0],[1,0.75,0]];outlineConnect=0;fontColor=#232F3E;gradientColor=#4D72F3;gradientDirection=north;fillColor=#3334B9;strokeColor=#ffffff;dashed=0;verticalLabelPosition=bottom;verticalAlign=top;align=center;html=1;fontSize=8;fontStyle=0;aspect=fixed;shape=mxgraph.aws4.resourceIcon;resIcon=mxgraph.aws4.codepipeline;fontFamily=Helvetica;" parent="1" vertex="1">
                    <mxGeometry x="734.5" y="300" width="40" height="40" as="geometry"/>
                </mxCell>
                <mxCell id="VNNkjWeVyXdIB6SSBeoQ-69" style="edgeStyle=orthogonalEdgeStyle;shape=connector;rounded=1;orthogonalLoop=1;jettySize=auto;html=1;entryX=0.5;entryY=0;entryDx=0;entryDy=0;entryPerimeter=0;labelBackgroundColor=default;strokeColor=default;fontFamily=Helvetica;fontSize=8;fontColor=default;startArrow=oval;startFill=1;endArrow=blockThin;endFill=1;arcSize=10;" parent="1" source="VNNkjWeVyXdIB6SSBeoQ-65" target="VNNkjWeVyXdIB6SSBeoQ-66" edge="1">
                    <mxGeometry relative="1" as="geometry"/>
                </mxCell>
                <mxCell id="VNNkjWeVyXdIB6SSBeoQ-79" style="edgeStyle=orthogonalEdgeStyle;shape=connector;rounded=1;orthogonalLoop=1;jettySize=auto;html=1;labelBackgroundColor=default;strokeColor=default;fontFamily=Helvetica;fontSize=8;fontColor=default;startArrow=oval;startFill=1;endArrow=blockThin;endFill=1;arcSize=10;" parent="1" source="VNNkjWeVyXdIB6SSBeoQ-65" target="VNNkjWeVyXdIB6SSBeoQ-62" edge="1">
                    <mxGeometry relative="1" as="geometry">
                        <Array as="points">
                            <mxPoint x="820" y="400"/>
                            <mxPoint x="820" y="400"/>
                        </Array>
                    </mxGeometry>
                </mxCell>
                <mxCell id="VNNkjWeVyXdIB6SSBeoQ-65" value="CodeBuild" style="sketch=0;points=[[0,0,0],[0.25,0,0],[0.5,0,0],[0.75,0,0],[1,0,0],[0,1,0],[0.25,1,0],[0.5,1,0],[0.75,1,0],[1,1,0],[0,0.25,0],[0,0.5,0],[0,0.75,0],[1,0.25,0],[1,0.5,0],[1,0.75,0]];outlineConnect=0;fontColor=#232F3E;gradientColor=#4D72F3;gradientDirection=north;fillColor=#3334B9;strokeColor=#ffffff;dashed=0;verticalLabelPosition=bottom;verticalAlign=top;align=center;html=1;fontSize=8;fontStyle=0;aspect=fixed;shape=mxgraph.aws4.resourceIcon;resIcon=mxgraph.aws4.codebuild;fontFamily=Helvetica;" parent="1" vertex="1">
                    <mxGeometry x="734.5" y="380" width="40" height="40" as="geometry"/>
                </mxCell>
                <mxCell id="VNNkjWeVyXdIB6SSBeoQ-66" value="ArtifactBucket" style="sketch=0;points=[[0,0,0],[0.25,0,0],[0.5,0,0],[0.75,0,0],[1,0,0],[0,1,0],[0.25,1,0],[0.5,1,0],[0.75,1,0],[1,1,0],[0,0.25,0],[0,0.5,0],[0,0.75,0],[1,0.25,0],[1,0.5,0],[1,0.75,0]];outlineConnect=0;fontColor=#232F3E;gradientColor=#60A337;gradientDirection=north;fillColor=#277116;strokeColor=#ffffff;dashed=0;verticalLabelPosition=bottom;verticalAlign=top;align=center;html=1;fontSize=8;fontStyle=0;aspect=fixed;shape=mxgraph.aws4.resourceIcon;resIcon=mxgraph.aws4.s3;fontFamily=Helvetica;" parent="1" vertex="1">
                    <mxGeometry x="734.5" y="480" width="40" height="40" as="geometry"/>
                </mxCell>
                <mxCell id="VNNkjWeVyXdIB6SSBeoQ-85" value="" style="edgeStyle=orthogonalEdgeStyle;shape=connector;rounded=1;orthogonalLoop=1;jettySize=auto;html=1;labelBackgroundColor=default;strokeColor=default;fontFamily=Helvetica;fontSize=8;fontColor=default;startArrow=oval;startFill=1;endArrow=blockThin;endFill=1;exitX=0.5;exitY=0.2;exitDx=0;exitDy=0;exitPerimeter=0;" parent="1" source="VNNkjWeVyXdIB6SSBeoQ-83" target="VNNkjWeVyXdIB6SSBeoQ-62" edge="1">
                    <mxGeometry relative="1" as="geometry">
                        <Array as="points"/>
                    </mxGeometry>
                </mxCell>
                <mxCell id="VNNkjWeVyXdIB6SSBeoQ-83" value="Developer" style="shape=image;verticalLabelPosition=bottom;labelBackgroundColor=default;verticalAlign=top;aspect=fixed;imageAspect=0;image=https://upload.wikimedia.org/wikipedia/commons/thumb/9/9a/Visual_Studio_Code_1.35_icon.svg/2048px-Visual_Studio_Code_1.35_icon.svg.png;fontSize=8;points=[[0,0.25,0,0,0],[0,0.5,0,0,0],[0,0.75,0,0,0],[0.25,0.35,0,0,0],[0.25,0.65,0,0,0],[0.5,0.2,0,0,0],[0.5,0.85,0,0,0],[0.75,0,0,0,0],[0.75,1,0,0,0],[1,0.1,0,0,0],[1,0.25,0,0,0],[1,0.5,0,0,0],[1,0.75,0,0,0],[1,0.9,0,0,0]];" parent="1" vertex="1">
                    <mxGeometry x="860" y="468" width="40" height="40" as="geometry"/>
                </mxCell>
                <mxCell id="XZUPAo8GXQ_Ro02G_9b--3" value="&lt;font style=&quot;font-size: 8px;&quot;&gt;elastic-search&lt;/font&gt;" style="sketch=0;outlineConnect=0;fontColor=#232F3E;gradientColor=none;fillColor=#D45B07;strokeColor=none;dashed=0;verticalLabelPosition=bottom;verticalAlign=top;align=center;html=1;fontSize=12;fontStyle=0;aspect=fixed;pointerEvents=1;shape=mxgraph.aws4.container_1;" parent="1" vertex="1">
                    <mxGeometry x="516.79" y="580" width="46.45" height="30" as="geometry"/>
                </mxCell>
                <mxCell id="2" value="public" style="outlineConnect=0;gradientColor=none;html=1;whiteSpace=wrap;fontSize=12;fontStyle=0;strokeColor=#879196;fillColor=none;verticalAlign=top;align=center;fontColor=#879196;dashed=1;spacingTop=3;" vertex="1" parent="1">
                    <mxGeometry x="369" y="350" width="70" height="220" as="geometry"/>
                </mxCell>
            </root>
        </mxGraphModel>
    </diagram>
</mxfile>